<svg width="25" height="25" viewBox="0 0 25 25" fill="none" xmlns="http://www.w3.org/2000/svg">
<path d="M22.1667 5.5H2.83333C2.64925 5.5 2.5 5.64925 2.5 5.83333V19.8333C2.5 20.0174 2.64925 20.1667 2.83333 20.1667H22.1667C22.3507 20.1667 22.5 20.0174 22.5 19.8333V5.83333C22.5 5.64925 22.3507 5.5 22.1667 5.5ZM21.8333 19.5H3.16667V16.038L7.16667 12.038L9.931 14.8023C10.0612 14.9325 10.2722 14.9325 10.4023 14.8023L15.5 9.70467L21.8333 16.038V19.5ZM21.8333 15.0953L15.7357 8.99767C15.6055 8.86754 15.3945 8.86754 15.2643 8.99767L10.1667 14.0953L7.40233 11.331C7.27217 11.2009 7.06117 11.2009 6.931 11.331L3.16667 15.0953V6.16667H21.8333V15.0953Z" fill="#A0A4A8"/>
</svg>
