<svg width="40" height="41" viewBox="0 0 40 41" fill="none" xmlns="http://www.w3.org/2000/svg">
<circle cx="20" cy="20.5" r="20" fill="#F9CCC8" fill-opacity="0.5"/>
<g clip-path="url(#clip0)">
<path d="M26.0497 7.70917H7.98943C6.04511 7.70917 4.46885 9.28474 4.46885 11.2291V13.4866V32.5108C4.46885 34.4545 6.04511 36.0308 7.98943 36.0308H26.0491C27.9934 36.0308 29.5697 34.4546 29.5697 32.5108V13.4866V11.2291C29.5697 9.2848 27.9934 7.70917 26.0497 7.70917Z" fill="#F6F9F9"/>
<path d="M8.51516 10.702C7.74991 10.702 7.12959 10.0817 7.12959 9.31643V6.35436C7.12959 5.58911 7.74991 4.9688 8.51516 4.9688C9.28041 4.9688 9.90072 5.58911 9.90072 6.35436V9.31643C9.90072 10.0817 9.28041 10.702 8.51516 10.702Z" fill="#F6DE81"/>
<path d="M9.90099 7.59898V9.3168C9.90099 10.0814 9.28037 10.702 8.51506 10.702C7.74974 10.702 7.12987 10.0814 7.12987 9.3168V7.59898C7.12987 8.3643 7.74974 8.98417 8.51506 8.98417C9.28037 8.98417 9.90099 8.3643 9.90099 7.59898Z" fill="#F2CE6B"/>
<path d="M14.1847 10.702C13.4194 10.702 12.7991 10.0817 12.7991 9.31643V6.35436C12.7991 5.58911 13.4194 4.9688 14.1847 4.9688C14.9499 4.9688 15.5702 5.58911 15.5702 6.35436V9.31643C15.5702 10.0817 14.9499 10.702 14.1847 10.702Z" fill="#F6DE81"/>
<path d="M15.5705 7.59898V9.3168C15.5705 10.0814 14.9499 10.702 14.1846 10.702C13.4193 10.702 12.7994 10.0814 12.7994 9.3168V7.59898C12.7994 8.3643 13.4193 8.98417 14.1846 8.98417C14.9499 8.98417 15.5705 8.3643 15.5705 7.59898Z" fill="#F2CE6B"/>
<path d="M19.854 10.702C19.0887 10.702 18.4684 10.0817 18.4684 9.31643V6.35436C18.4684 5.58911 19.0887 4.9688 19.854 4.9688C20.6192 4.9688 21.2396 5.58911 21.2396 6.35436V9.31643C21.2396 10.0817 20.6192 10.702 19.854 10.702Z" fill="#F6DE81"/>
<path d="M21.2398 7.59898V9.3168C21.2398 10.0814 20.6192 10.702 19.8539 10.702C19.0886 10.702 18.4687 10.0814 18.4687 9.3168V7.59898C18.4687 8.3643 19.0886 8.98417 19.8539 8.98417C20.6192 8.98417 21.2398 8.3643 21.2398 7.59898Z" fill="#F2CE6B"/>
<path d="M25.5236 10.702C24.7584 10.702 24.1381 10.0817 24.1381 9.31643V6.35437C24.1381 5.58912 24.7584 4.96881 25.5236 4.96881C26.2889 4.96881 26.9092 5.58912 26.9092 6.35437V9.31643C26.9092 10.0817 26.2888 10.702 25.5236 10.702Z" fill="#F6DE81"/>
<path d="M26.9096 7.599V9.31682C26.9096 10.0814 26.289 10.702 25.5237 10.702C24.7584 10.702 24.1385 10.0814 24.1385 9.31682V7.599C24.1385 8.36432 24.7584 8.98419 25.5237 8.98419C26.289 8.98419 26.9096 8.36432 26.9096 7.599Z" fill="#F2CE6B"/>
<path d="M35.1343 24.7625L34.0411 25.8557L30.4322 24.653L29.0172 20.8317L30.1103 19.7385C30.6397 19.2092 31.4983 19.2092 32.0276 19.7385L35.1343 22.8453C35.6636 23.3745 35.6636 24.2332 35.1343 24.7625Z" fill="#E28086"/>
<path d="M21.4274 31.6281L21.5401 30.9621L21.9646 28.4576C22.0407 28.0081 22.2556 27.5931 22.578 27.2708L26.3986 28.6864L27.602 32.2947C27.2796 32.6171 26.8641 32.8315 26.4152 32.9081L23.9095 33.3326L23.2446 33.4453C22.1747 33.6268 21.2459 32.698 21.4274 31.6281Z" fill="#FDF0DB"/>
<path d="M21.8667 33.006C21.5236 32.6628 21.3364 32.1628 21.4273 31.6281L21.5401 30.9621L21.9646 28.4576C22.0406 28.0081 22.2556 27.5931 22.5779 27.2708L26.2432 28.6295L24.2249 28.9178C23.9026 29.2401 23.6217 29.5891 23.4232 29.9163L22.3172 31.7393L22.0231 32.224C21.7864 32.6128 21.7486 32.8879 21.8667 33.006Z" fill="#FBE2BD"/>
<path d="M30.3746 24.4981L29.0169 20.8317L30.1101 19.7385C30.6394 19.2092 31.4981 19.2092 32.0274 19.7385L33.0456 20.7567C32.8636 20.5748 32.2864 20.8562 31.7571 21.3855L30.6639 22.4787L30.3746 24.4981Z" fill="#DD636E"/>
<path d="M34.0449 25.8557L27.6069 32.2937L22.5837 27.2705L29.0217 20.8326L34.0449 25.8557Z" fill="#F6DE81"/>
<path d="M26.321 28.6581L26.2433 28.6294L26.329 28.6172L26.321 28.6581Z" fill="#FBE2BD"/>
<path d="M30.4033 24.5758L30.3623 24.5837L30.3746 24.4981L30.4033 24.5758Z" fill="#DD636E"/>
<path d="M22.574 27.2706L29.012 20.8326L30.6588 22.4794L24.2207 28.9174L22.574 27.2706Z" fill="#F2CE6B"/>
<path d="M23.9098 33.3324L23.2448 33.4452C22.7101 33.5362 22.2101 33.3489 21.8669 33.0058C21.5238 32.6627 21.3366 32.1626 21.4275 31.628L21.5403 30.962L22.2053 30.8492C22.4271 30.8114 22.6431 30.822 22.8436 30.8715C23.6129 31.0598 24.1666 31.8189 24.023 32.6669L23.9098 33.3324Z" fill="#30579D"/>
<path d="M21.8672 33.0058C21.524 32.6627 21.3368 32.1626 21.4277 31.628L21.5405 30.962L22.2055 30.8492C22.4273 30.8114 22.6433 30.822 22.8439 30.8715L22.3177 31.7391L22.0235 32.2237C21.7868 32.6127 21.749 32.8877 21.8672 33.0058Z" fill="#26457D"/>
<path d="M7.99936 14.8152H26.0392C26.2981 14.8152 26.508 14.6053 26.508 14.3464C26.508 14.0876 26.2981 13.8777 26.0392 13.8777H7.99936C7.74048 13.8777 7.53061 14.0876 7.53061 14.3464C7.53061 14.6053 7.74048 14.8152 7.99936 14.8152Z" fill="black"/>
<path d="M7.99936 19.8309H26.0392C26.2981 19.8309 26.508 19.621 26.508 19.3621C26.508 19.1032 26.2981 18.8934 26.0392 18.8934H7.99936C7.74048 18.8934 7.53061 19.1032 7.53061 19.3621C7.53061 19.621 7.74048 19.8309 7.99936 19.8309Z" fill="black"/>
<path d="M35.4655 22.5145L32.3586 19.4076C31.7283 18.7773 30.7481 18.7059 30.0379 19.1924V11.2299C30.0379 9.52228 28.9609 8.02477 27.3777 7.46802V6.35495C27.3777 5.33251 26.5459 4.50063 25.5234 4.50063C24.5009 4.50063 23.669 5.33245 23.669 6.35495V7.24121H21.7083V6.35495C21.7083 5.33251 20.8765 4.50063 19.854 4.50063C18.8315 4.50063 17.9996 5.33245 17.9996 6.35495V7.24121H16.0389V6.35495C16.0389 5.33251 15.2071 4.50063 14.1846 4.50063C13.1621 4.50063 12.3302 5.33245 12.3302 6.35495V7.24121H10.3695V6.35495C10.3695 5.33251 9.53767 4.50063 8.51516 4.50063C7.49272 4.50063 6.66084 5.33245 6.66084 6.35495V7.46777C5.07709 8.02408 3.99983 9.52159 3.99983 11.2297V13.651C3.99983 13.9099 4.20971 14.1197 4.46859 14.1197C4.72746 14.1197 4.93734 13.9099 4.93734 13.651V11.2297C4.93734 10.0383 5.62215 8.98103 6.66091 8.48109V9.31703C6.66091 10.3395 7.49272 11.1713 8.51523 11.1713C9.53773 11.1713 10.3695 10.3395 10.3695 9.31703V8.17871H12.3303V9.31703C12.3303 10.3395 13.1621 11.1713 14.1846 11.1713C15.2071 11.1713 16.0389 10.3395 16.0389 9.31703V8.17871H17.9997V9.31703C17.9997 10.3395 18.8315 11.1713 19.854 11.1713C20.8765 11.1713 21.7083 10.3395 21.7083 9.31703V8.17871H23.6691V9.31703C23.6691 10.3395 24.5009 11.1713 25.5234 11.1713C26.5459 11.1713 27.3777 10.3395 27.3777 9.31703V8.48146C28.4159 8.98171 29.1004 10.039 29.1004 11.2298V20.0854L25.2766 23.9095H7.9991C7.74022 23.9095 7.53035 24.1194 7.53035 24.3783C7.53035 24.6372 7.74022 24.847 7.9991 24.847H24.3392L22.2464 26.94C21.8528 27.3336 21.5956 27.8313 21.5026 28.3793L21.4101 28.925H7.9991C7.74022 28.925 7.53035 29.1349 7.53035 29.3938C7.53035 29.6527 7.74022 29.8625 7.9991 29.8625H21.2512L20.9651 31.5501C20.853 32.2117 21.0609 32.8634 21.5354 33.3379C21.9254 33.7279 22.435 33.9377 22.9716 33.9377C23.0877 33.9377 23.205 33.9279 23.3227 33.9079L26.4931 33.3704C27.0416 33.2774 27.5395 33.0202 27.933 32.6266L29.1003 31.4593V32.5114C29.1003 34.1938 27.7312 35.5626 26.0484 35.5626H7.98916C6.30634 35.5626 4.93727 34.1938 4.93727 32.5114V15.5259C4.93727 15.267 4.7274 15.0572 4.46852 15.0572C4.20965 15.0572 3.99977 15.267 3.99977 15.5259V32.5114C3.99977 34.7108 5.7894 36.5001 7.9891 36.5001H26.0484C28.2481 36.5001 30.0377 34.7108 30.0377 32.5114V30.5219L31.5979 28.9617C31.7809 28.7786 31.7809 28.4818 31.5979 28.2988C31.4148 28.1157 31.118 28.1157 30.935 28.2988L27.6014 31.6324L23.2406 27.2715L29.0164 21.4953L33.3775 25.8563L32.26 26.9738C32.0769 27.1568 32.0769 27.4537 32.26 27.6367C32.4431 27.8197 32.7399 27.8197 32.9229 27.6367L35.4653 25.0942C35.8099 24.7497 35.9997 24.2915 35.9997 23.8043C35.9998 23.3171 35.81 22.859 35.4655 22.5145ZM9.43204 9.31703C9.43204 9.82253 9.02079 10.2338 8.51523 10.2338C8.00973 10.2338 7.59841 9.82259 7.59841 9.31703V6.35495C7.59841 5.84945 8.00973 5.43814 8.51523 5.43814C9.02079 5.43814 9.43204 5.84945 9.43204 6.35495V9.31703ZM15.1014 9.31703C15.1014 9.82253 14.6901 10.2338 14.1846 10.2338C13.6791 10.2338 13.2678 9.82259 13.2678 9.31703V6.35495C13.2678 5.84945 13.6791 5.43814 14.1846 5.43814C14.6902 5.43814 15.1014 5.84945 15.1014 6.35495V9.31703ZM20.7708 9.31703C20.7708 9.82253 20.3595 10.2338 19.854 10.2338C19.3485 10.2338 18.9372 9.82259 18.9372 9.31703V6.35495C18.9372 5.84945 19.3485 5.43814 19.854 5.43814C20.3596 5.43814 20.7708 5.84945 20.7708 6.35495V9.31703ZM26.4402 9.31703C26.4402 9.82253 26.0289 10.2338 25.5234 10.2338C25.0179 10.2338 24.6066 9.82259 24.6066 9.31703V6.35495C24.6066 5.84945 25.0179 5.43814 25.5234 5.43814C26.029 5.43814 26.4402 5.84945 26.4402 6.35495V9.31703ZM23.1658 32.9837C22.8078 33.0444 22.4552 32.9319 22.1983 32.6751C21.9413 32.4181 21.8287 32.0651 21.8895 31.7065L21.9465 31.3699L22.2838 31.3124C22.6422 31.2516 22.9948 31.3642 23.2519 31.6211C23.5088 31.8781 23.6214 32.2309 23.5606 32.5888L23.5031 32.9266L23.1658 32.9837ZM26.3364 32.4462L24.4822 32.7605L24.4847 32.7458C24.5969 32.0842 24.3891 31.4327 23.9146 30.9582C23.4401 30.4837 22.7885 30.2758 22.1267 30.3882L22.1124 30.3906L22.4268 28.5362C22.4603 28.3388 22.5278 28.152 22.624 27.9807L26.8922 32.2489C26.7209 32.3451 26.534 32.4126 26.3364 32.4462ZM34.8026 24.4313L34.0405 25.1935L29.6794 20.8324L30.4412 20.0706C30.7871 19.7246 31.3499 19.7247 31.6958 20.0706L34.8026 23.1775C34.9701 23.345 35.0624 23.5676 35.0624 23.8045C35.0623 24.0411 34.9701 24.2638 34.8026 24.4313Z" fill="black"/>
</g>
<defs>
<clipPath id="clip0">
<rect width="32" height="32" fill="white" transform="translate(4 4.5)"/>
</clipPath>
</defs>
</svg>
