<svg width="25" height="25" viewBox="0 0 25 25" fill="none" xmlns="http://www.w3.org/2000/svg">
<path d="M20.3842 10.6464C19.6409 9.90881 18.7425 9.34614 17.7544 8.99939C19.3288 7.74176 19.5856 5.44596 18.3279 3.87156C17.0703 2.29716 14.7745 2.04034 13.2001 3.29796C11.2099 1.98437 8.53164 2.53285 7.21804 4.52308C5.97569 6.40533 6.39123 8.92665 8.17193 10.3107C4.77557 11.4286 2.48558 14.6067 2.50007 18.1822V20.8393C2.50115 21.756 3.24405 22.4989 4.16074 22.5H17.4461C18.3628 22.4989 19.1057 21.756 19.1068 20.8393V19.2351H20.99C21.7848 19.2333 22.4282 18.5884 22.4282 17.7937V15.5816C22.4318 13.7299 21.696 11.9534 20.3842 10.6464ZM15.4533 3.17972C17.1042 3.17761 18.4442 4.5142 18.4464 6.16512C18.4478 7.28321 17.8251 8.30863 16.8323 8.82303C16.7423 8.86952 16.6503 8.91303 16.5547 8.95123L16.5444 8.95555C16.5331 8.95841 16.522 8.96206 16.5112 8.96651C16.458 8.98677 16.4016 9.0047 16.3431 9.02297C16.1618 9.08122 15.9749 9.12049 15.7855 9.14021C15.7363 9.14652 15.6895 9.14918 15.6423 9.15184C15.5141 9.15815 15.3905 9.15782 15.2663 9.15184C15.2172 9.14885 15.1703 9.14619 15.1169 9.13955C14.9287 9.11999 14.7431 9.08114 14.5629 9.02363H14.5586C14.5675 9.00836 14.5732 8.99042 14.5818 8.97581C14.6597 8.83656 14.7298 8.69308 14.7917 8.54602C14.7957 8.53606 14.8007 8.52676 14.8047 8.51713C14.8657 8.36526 14.9178 8.21003 14.9608 8.05214C14.9694 8.02158 14.9784 7.99103 14.986 7.96014C15.0257 7.8047 15.0565 7.6471 15.0783 7.48818C15.0827 7.45828 15.0853 7.42839 15.0886 7.3985C15.1094 7.22969 15.1203 7.05976 15.1212 6.88967C15.1208 6.72954 15.1117 6.56953 15.094 6.4104C15.0883 6.35859 15.0773 6.30843 15.07 6.25728C15.0548 6.15167 15.0385 6.04638 15.0156 5.94308C15.0023 5.8833 14.9847 5.82518 14.9691 5.76639C14.9442 5.67339 14.9183 5.58106 14.8874 5.49005C14.8668 5.4296 14.8432 5.37082 14.8209 5.31136C14.7877 5.22468 14.7515 5.13899 14.712 5.05496C14.6848 4.9965 14.6555 4.93904 14.6256 4.88191C14.5825 4.79988 14.5363 4.71917 14.4878 4.63979C14.4546 4.58532 14.4214 4.53151 14.3852 4.47837C14.3317 4.39932 14.2746 4.32293 14.2158 4.24588C14.1779 4.19705 14.1407 4.14624 14.1009 4.1004C14.0344 4.02268 13.9644 3.94895 13.893 3.87588C13.8534 3.83503 13.8159 3.79318 13.7744 3.75398C13.7624 3.74269 13.7525 3.73007 13.7412 3.72077C14.2424 3.36821 14.8405 3.17927 15.4533 3.17972ZM7.14995 6.88967C7.14995 4.87191 8.78568 3.23619 10.8034 3.23619C12.8212 3.23619 14.4569 4.87191 14.4569 6.88967C14.4569 6.984 14.4534 7.07786 14.4463 7.17132C14.4403 7.2497 14.4303 7.32709 14.4197 7.40381C14.4177 7.41776 14.4167 7.43171 14.4147 7.44566C14.3358 7.94968 14.1523 8.43165 13.876 8.86056C13.8478 8.9044 13.8205 8.9489 13.7903 8.99175L13.7883 8.9964C13.7833 9.00238 13.779 9.00836 13.7744 9.01433C13.4386 9.48435 12.996 9.86792 12.483 10.1336C12.1633 10.302 11.8193 10.4197 11.4634 10.4824C11.3926 10.497 11.3249 10.506 11.2462 10.5156C11.1844 10.5239 11.12 10.5295 11.0658 10.5355H11.025C10.9536 10.5385 10.8785 10.5418 10.8034 10.5418H10.7669C10.7061 10.5418 10.6447 10.5385 10.5676 10.5362C10.4975 10.5302 10.4301 10.5239 10.358 10.5146C10.286 10.5053 10.2159 10.497 10.1372 10.4814C9.78233 10.4182 9.43944 10.3002 9.12084 10.1316C7.90789 9.50606 7.14697 8.25441 7.14995 6.88967ZM18.4425 20.8393C18.4425 21.3896 17.9964 21.8357 17.4461 21.8357H4.16074C3.61044 21.8357 3.16434 21.3896 3.16434 20.8393V18.1822C3.14972 14.8241 5.34214 11.8549 8.55588 10.8806C8.64921 10.8521 8.74628 10.8377 8.84384 10.8378C8.97582 10.838 9.1066 10.8634 9.22912 10.9125C9.48142 11.0103 9.74227 11.0844 10.0083 11.134C10.097 11.1523 10.1853 11.1639 10.2717 11.1745C10.3514 11.1855 10.4278 11.1921 10.5115 11.1998H10.5513C10.6234 11.2034 10.6952 11.2068 10.7669 11.2068H10.8034C10.8881 11.2068 10.9725 11.2034 11.0658 11.2001C11.0755 11.2001 11.1044 11.1981 11.1146 11.1975C11.1897 11.1905 11.2651 11.1838 11.3315 11.1745C11.4242 11.1632 11.5096 11.152 11.5909 11.1347C11.8608 11.0848 12.1255 11.0097 12.3814 10.9105C12.5937 10.8253 12.8285 10.8146 13.0477 10.8799C16.2543 11.8655 18.4427 14.8276 18.4425 18.1822V20.8393ZM21.7639 17.7937C21.7643 18.2217 21.4181 18.5694 20.99 18.5708H19.1068V18.1822C19.1112 15.979 18.2355 13.8653 16.6742 12.3108C16.557 12.1939 16.4358 12.0809 16.3122 11.9713C16.274 11.9381 16.2342 11.9049 16.1953 11.8737C16.1083 11.7993 16.0213 11.7249 15.9296 11.6545C15.8818 11.6169 15.8326 11.5824 15.7841 11.5462C15.7004 11.4834 15.6181 11.4203 15.531 11.3605C15.4779 11.324 15.4231 11.2898 15.3693 11.2543C15.2859 11.1991 15.2032 11.144 15.1172 11.0918C15.0594 11.0566 15.0003 11.0237 14.9415 10.9899C14.8578 10.9417 14.7754 10.8936 14.6894 10.8484C14.6273 10.8152 14.5639 10.7846 14.5011 10.7531C14.4952 10.7501 14.4892 10.7472 14.4833 10.7442C14.4059 10.7056 14.3289 10.6673 14.249 10.6312C14.1826 10.6006 14.1161 10.5724 14.0497 10.5438C13.9667 10.5083 13.8837 10.4734 13.7993 10.4409C13.7289 10.4136 13.6578 10.388 13.5867 10.3628C13.5376 10.3452 13.4894 10.3256 13.4399 10.309C13.4731 10.2838 13.5017 10.2535 13.5339 10.2273C13.6003 10.1728 13.6644 10.1167 13.7276 10.0582C13.7907 9.99978 13.8491 9.94365 13.9072 9.8832C13.9654 9.82275 14.0248 9.75666 14.0813 9.69089C14.1098 9.65768 14.1424 9.62712 14.1703 9.59125C14.2281 9.61319 14.2887 9.63254 14.3479 9.65144C14.3524 9.65285 14.3568 9.65427 14.3613 9.65569C14.5825 9.7261 14.8103 9.77405 15.0411 9.79884C15.1046 9.80614 15.1644 9.81013 15.2301 9.81412C15.3055 9.81777 15.3773 9.82109 15.453 9.82109C15.5287 9.82109 15.6005 9.81777 15.6782 9.81378C15.7416 9.81013 15.8014 9.80614 15.8609 9.79917C16.0923 9.77467 16.3206 9.7268 16.5424 9.65635C16.6088 9.63543 16.6752 9.61417 16.738 9.58992C16.7483 9.5866 16.7586 9.58262 16.7686 9.57863C16.7785 9.57465 16.7815 9.57431 16.7878 9.57166C16.9536 9.50556 17.1367 9.49705 17.308 9.54741C18.2905 9.85169 19.1847 10.3896 19.9139 11.1151C21.1013 12.2978 21.7672 13.9057 21.7639 15.5816V17.7937Z" fill="#ED675B"/>
<path d="M18.4425 20.8393C18.4425 21.3896 17.9964 21.8357 17.4461 21.8357H4.16074C3.61044 21.8357 3.16434 21.3896 3.16434 20.8393V18.1822C3.14972 14.8241 5.34214 11.8549 8.55588 10.8806C8.64921 10.8521 8.74628 10.8377 8.84384 10.8378C8.97582 10.838 9.1066 10.8634 9.22912 10.9125C9.48142 11.0103 9.74227 11.0844 10.0083 11.134C10.097 11.1523 10.1853 11.1639 10.2717 11.1745C10.3514 11.1855 10.4278 11.1921 10.5115 11.1998H10.5513C10.6234 11.2034 10.6952 11.2068 10.7669 11.2068H10.8034C10.8881 11.2068 10.9725 11.2034 11.0658 11.2001C11.0755 11.2001 11.1044 11.1981 11.1146 11.1975C11.1897 11.1905 11.2651 11.1838 11.3315 11.1745C11.4242 11.1632 11.5096 11.152 11.5909 11.1347C11.8608 11.0848 12.1255 11.0097 12.3814 10.9105C12.5937 10.8253 12.8285 10.8146 13.0477 10.8799C16.2543 11.8655 18.4427 14.8276 18.4425 18.1822V20.8393Z" fill="#ED675B"/>
</svg>
