<svg width="24" height="25" viewBox="0 0 24 25" fill="none" xmlns="http://www.w3.org/2000/svg">
<path d="M17.99 2.5H6.67667C5.75112 2.50108 5.00108 3.25113 5 4.17667V20.8233C5.00108 21.7489 5.75112 22.4989 6.67667 22.5H17.99C18.9155 22.4989 19.6656 21.7489 19.6667 20.8233V4.17667C19.6656 3.25113 18.9155 2.50108 17.99 2.5ZM19 20.8233C18.9995 21.3809 18.5476 21.8328 17.99 21.8333H6.67667C6.11908 21.8328 5.66721 21.3809 5.66667 20.8233V4.17667C5.66721 3.61908 6.11908 3.16721 6.67667 3.16667H17.99C18.5476 3.16721 18.9995 3.61908 19 4.17667V20.8233Z" fill="#ED675B"/>
<path d="M19 20.8233C18.9995 21.3809 18.5476 21.8328 17.99 21.8333H6.67667C6.11908 21.8328 5.66721 21.3809 5.66667 20.8233V4.17667C5.66721 3.61908 6.11908 3.16721 6.67667 3.16667H17.99C18.5476 3.16721 18.9995 3.61908 19 4.17667V20.8233Z" fill="#ED675B"/>
<path d="M16.3333 12.1667H8.33333C8.14925 12.1667 8 12.3159 8 12.5C8 12.6841 8.14925 12.8333 8.33333 12.8333H16.3333C16.5174 12.8333 16.6667 12.6841 16.6667 12.5C16.6667 12.3159 16.5174 12.1667 16.3333 12.1667Z" fill="white"/>
<path d="M16.3333 16.1667H8.33333C8.14925 16.1667 8 16.3159 8 16.5C8 16.6841 8.14925 16.8334 8.33333 16.8334H16.3333C16.5174 16.8334 16.6667 16.6841 16.6667 16.5C16.6667 16.3159 16.5174 16.1667 16.3333 16.1667Z" fill="white"/>
<path d="M16.3333 8.16666H8.33333C8.14925 8.16666 8 8.31591 8 8.49999C8 8.68407 8.14925 8.83332 8.33333 8.83332H16.3333C16.5174 8.83332 16.6667 8.68407 16.6667 8.49999C16.6667 8.31591 16.5174 8.16666 16.3333 8.16666Z" fill="white"/>
</svg>
