<svg width="40" height="41" viewBox="0 0 40 41" fill="none" xmlns="http://www.w3.org/2000/svg">
<circle cx="20" cy="20.5" r="20" fill="#F9CCC8" fill-opacity="0.5"/>
<g clip-path="url(#clip0)">
<path d="M30.2649 12.3247L20.625 6.04663V5.125C20.625 4.77981 20.3452 4.5 20 4.5C19.6549 4.5 19.375 4.77981 19.375 5.125V6.04663L9.73523 12.3247C9.55811 12.4401 9.45129 12.6371 9.45129 12.8484V35.875C9.45129 36.2202 9.73111 36.5 10.0763 36.5H29.9238C30.269 36.5 30.5488 36.2202 30.5488 35.875V12.8484C30.5488 12.6371 30.442 12.44 30.2649 12.3247ZM20 12.7304C20.3452 12.7304 20.625 12.4506 20.625 12.1054V11.6898C21.0007 11.9058 21.2541 12.3102 21.2541 12.7724C21.2541 13.4612 20.6915 14.0216 20 14.0216C19.3085 14.0216 18.746 13.4612 18.746 12.7724C18.746 12.3102 18.9994 11.9058 19.375 11.6898V12.1054C19.375 12.4506 19.6549 12.7304 20 12.7304ZM29.2988 35.25H10.7013V13.1873L19.375 7.53837V10.3521C18.2957 10.6299 17.496 11.6097 17.496 12.7725C17.496 14.1506 18.6193 15.2717 20 15.2717C21.3808 15.2717 22.5041 14.1506 22.5041 12.7725C22.5041 11.6097 21.7044 10.6299 20.625 10.3521V7.53837L29.2988 13.1873V35.25Z" fill="#020288"/>
<path d="M13.081 18.9941H26.919V32.8781H13.081V18.9941Z" fill="#FFF59B"/>
<path d="M18.3126 30.3573C18.232 30.3573 18.1501 30.3416 18.0711 30.3084C17.7527 30.1748 17.6031 29.8085 17.7366 29.4903L21.0597 21.5721C21.1932 21.2538 21.5595 21.1041 21.8778 21.2377C22.1961 21.3713 22.3458 21.7376 22.2122 22.0558L18.8892 29.9739C18.7888 30.2133 18.5568 30.3573 18.3126 30.3573Z" fill="#020288"/>
<path d="M17.3642 25.4825C16.21 25.4825 15.2709 24.4367 15.2709 23.1512C15.2709 21.8657 16.21 20.82 17.3642 20.82C18.5185 20.82 19.4576 21.8657 19.4576 23.1512C19.4576 24.4367 18.5185 25.4825 17.3642 25.4825ZM17.3642 22.07C16.9071 22.07 16.5209 22.5651 16.5209 23.1512C16.5209 23.7373 16.9071 24.2325 17.3642 24.2325C17.8214 24.2325 18.2076 23.7374 18.2076 23.1512C18.2076 22.5651 17.8214 22.07 17.3642 22.07Z" fill="#020288"/>
<path d="M22.4772 30.896C21.3229 30.896 20.3839 29.8502 20.3839 28.5647C20.3839 27.2793 21.3229 26.2335 22.4772 26.2335C23.6314 26.2335 24.5705 27.2792 24.5705 28.5647C24.5704 29.8502 23.6314 30.896 22.4772 30.896ZM22.4772 27.4835C22.0201 27.4835 21.6339 27.9787 21.6339 28.5648C21.6339 29.1509 22.0201 29.646 22.4772 29.646C22.9343 29.646 23.3205 29.1509 23.3205 28.5648C23.3205 27.9787 22.9343 27.4835 22.4772 27.4835Z" fill="#020288"/>
</g>
<defs>
<clipPath id="clip0">
<rect width="32" height="32" fill="white" transform="translate(4 4.5)"/>
</clipPath>
</defs>
</svg>
