<svg width="25" height="25" viewBox="0 0 25 25" fill="none" xmlns="http://www.w3.org/2000/svg">
<path d="M22.2862 11.2818L12.987 2.68951C12.716 2.4368 12.284 2.4368 12.0131 2.68951L2.7142 11.2815C2.5773 11.4079 2.5 11.5821 2.5 11.7642C2.5 12.1348 2.81394 12.4352 3.20114 12.4352H4.4369V21.829C4.4369 22.1996 4.75079 22.5 5.13804 22.5H10.046C10.4333 22.5 10.7472 22.1996 10.7472 21.829V16.4611H14.2529V21.829C14.2529 22.1996 14.5668 22.5 14.954 22.5H19.862C20.2492 22.5 20.5631 22.1996 20.5631 21.829V12.4352H21.7989C21.989 12.4352 22.1709 12.3614 22.303 12.2306C22.5721 11.9641 22.5646 11.5393 22.2862 11.2818ZM20.5631 11.7642C20.1759 11.7642 19.862 12.0646 19.862 12.4352V21.829H14.954V16.4611C14.954 16.0905 14.6401 15.7901 14.2529 15.7901H10.7472C10.3599 15.7901 10.046 16.0905 10.046 16.4611V21.829H5.13804V12.4352C5.13804 12.0646 4.82415 11.7642 4.4369 11.7642H3.20114L12.5 3.17228L21.8024 11.7642H20.5631Z" fill="#ED675B"/>
<path d="M20.5631 11.7642C20.1759 11.7642 19.862 12.0646 19.862 12.4352V21.829H14.954V16.4611C14.954 16.0905 14.6401 15.7901 14.2529 15.7901H10.7472C10.3599 15.7901 10.046 16.0905 10.046 16.4611V21.829H5.13804V12.4352C5.13804 12.0646 4.82415 11.7642 4.4369 11.7642H3.20114L12.5 3.17228L21.8024 11.7642H20.5631Z" fill="#ED675B"/>
</svg>
