<svg width="25" height="25" viewBox="0 0 25 25" fill="none" xmlns="http://www.w3.org/2000/svg">
<path d="M21.4352 11.2818L12.5359 2.6895C12.2767 2.43679 11.8632 2.43679 11.6039 2.6895L2.70499 11.2815C2.57398 11.4079 2.5 11.5821 2.5 11.7642C2.5 12.1348 2.80043 12.4352 3.17098 12.4352H4.35359V21.829C4.35359 22.1996 4.65398 22.5 5.02458 22.5H9.72147C10.0921 22.5 10.3925 22.1996 10.3925 21.829V16.4611H13.7474V21.829C13.7474 22.1996 14.0478 22.5 14.4184 22.5H19.1152C19.4858 22.5 19.7862 22.1996 19.7862 21.829V12.4352H20.9688C21.1508 12.4352 21.3248 12.3614 21.4513 12.2306C21.7088 11.9641 21.7016 11.5393 21.4352 11.2818ZM19.7862 11.7642C19.4156 11.7642 19.1152 12.0646 19.1152 12.4352V21.829H14.4184V16.4611C14.4184 16.0905 14.118 15.7901 13.7474 15.7901H10.3925C10.0219 15.7901 9.72147 16.0905 9.72147 16.4611V21.829H5.02458V12.4352C5.02458 12.0646 4.72419 11.7642 4.35359 11.7642H3.17098L12.0699 3.17227L20.9722 11.7642H19.7862Z" fill="#A0A4A8"/>
</svg>
