<svg width="25" height="25" viewBox="0 0 25 25" fill="none" xmlns="http://www.w3.org/2000/svg">
<path d="M21.5 5.5H3.5C2.94771 5.5 2.5 5.94771 2.5 6.5V18.5C2.49938 18.7101 2.5658 18.915 2.68967 19.0847C2.87742 19.3452 3.17888 19.4997 3.5 19.5H21.5C21.8207 19.4998 22.1217 19.3458 22.3097 19.086C22.4338 18.9159 22.5005 18.7106 22.5 18.5V6.5C22.5 5.94771 22.0523 5.5 21.5 5.5ZM3.16667 18.309V7.692L10.0383 13L3.16667 18.309ZM3.57834 18.8333L10.5833 13.4213L11.889 14.4293C12.249 14.7072 12.751 14.7072 13.111 14.4293L14.4167 13.4213L21.4217 18.8333H3.57834ZM21.8333 18.309L14.9617 13L21.8333 7.692V18.309ZM21.8333 6.84967L12.7037 13.9017C12.5837 13.9943 12.4163 13.9943 12.2963 13.9017L3.16667 6.84967V6.5C3.16667 6.31592 3.31592 6.16667 3.5 6.16667H21.5C21.6841 6.16667 21.8333 6.31592 21.8333 6.5V6.84967Z" fill="#A0A4A8"/>
</svg>
