<svg width="80" height="110" viewBox="0 0 80 110" fill="none" xmlns="http://www.w3.org/2000/svg">
<path d="M64.1207 30.4658H42.3638C41.9484 30.4658 41.6609 30.0947 41.7887 29.6927L46.4212 15.1589C46.5171 14.8496 46.8366 14.6332 47.188 14.695C48.9452 14.9424 54.3764 15.6227 58.5936 15.6227C63.7373 15.6227 72.1079 12.4995 72.1079 5.2944C72.1079 -0.580991 68.6894 -0.364529 66.7405 0.377625C65.9098 0.686856 65.3028 1.36716 65.1111 2.20209C64.8555 3.34624 65.0153 4.83055 66.1015 5.57271C67.7309 6.68594 66.7725 9.3144 65.814 9.53086C61.9802 10.4586 54.6001 9.22163 50.6704 8.5104C46.7727 7.83009 39.9996 6.71686 28.4662 7.21163C28.4023 7.21163 28.3384 7.21163 28.3064 7.21163C17.2842 8.26301 9.99989 9.40717 7.25232 19.7973C7.22037 19.9519 7.18842 20.0756 7.15647 20.2303C5.84658 28.3939 8.78585 30.775 12.4599 32.1666C16.0701 33.3726 18.4663 30.775 18.8496 29.3216C19.233 27.8683 19.2969 25.549 17.3161 24.1575C15.5909 22.9515 13.035 24.1575 12.2682 24.7141C11.5015 25.2707 9.23313 25.6418 9.8721 20.8487C10.543 16.0556 15.3353 13.6746 18.626 13.2107C21.3416 12.8087 32.6834 13.3653 35.6865 13.5509C36.0699 13.5818 36.3255 13.9219 36.1977 14.293L30.9262 30.404C30.7345 30.9915 30.2233 31.4244 29.5843 31.5172C25.8783 32.0429 13.067 34.9187 11.8529 49.5144C11.8529 49.6072 11.8529 49.7309 11.8529 49.8237C11.9168 58.2657 18.4343 60.1829 21.086 60.6467C23.6739 61.0797 26.6131 61.729 30.1914 60.0592C30.415 59.9664 30.6067 59.8427 30.7664 59.6881C33.4501 57.338 34.6003 52.0192 34.76 51.1843C34.792 51.0915 34.792 51.0297 34.8239 50.9369L39.712 34.7641C39.8398 34.393 40.1913 34.1147 40.6066 34.1147H44.5043C44.5043 34.1147 46.2295 33.991 45.6545 36.4958C45.0794 38.9696 40.5108 58.111 34.6961 74.5621C28.9134 90.9514 26.07 98.6821 17.3161 102.764C17.0286 102.888 16.5174 103.073 16.1979 103.135C11.15 104.125 9.36092 102.919 8.21078 102.238C6.96478 101.496 5.27151 99.0223 7.34816 94.9405C8.97754 91.7863 12.1724 89.4671 13.4823 88.6012C13.8337 88.3848 14.281 88.4466 14.5046 88.7868L20.2554 96.734C20.4471 96.9814 20.7985 97.0432 21.0541 96.8886C21.9167 96.332 23.7697 94.8786 25.0157 91.9409C25.1435 91.6008 25.1116 91.1988 24.9199 90.8895L15.8145 77.6544C15.6867 77.438 15.5909 77.2215 15.495 77.0051C14.3768 74.8404 13.1947 68.0374 19.8081 68.2538C27.0285 68.4703 23.7697 75.9537 20.1915 77.9018C19.872 78.0564 19.7761 78.4275 19.9678 78.7368L22.3001 82.4166C22.5557 82.8495 23.1627 82.9423 23.5461 82.6331C25.1754 81.3652 28.7856 77.9946 30.0636 73.9437C30.0955 73.8509 30.1275 73.7272 30.1594 73.6344C31.7888 68.2847 29.169 62.0074 22.4918 62.0074C15.1117 62.0074 9.07339 64.2957 7.7635 72.5212C7.41206 74.8095 7.82739 79.5717 10.4152 82.0764C10.8306 82.4784 10.6708 83.1588 10.1916 83.4989C7.73155 85.2306 0 91.2606 0 99.3006C0 108.887 8.56221 110 12.1085 110C15.527 110 20.3193 109.567 25.8464 104.434C26.102 104.186 26.5173 104.217 26.709 104.465L30.3192 108.732C30.5109 108.949 30.8623 108.98 31.0859 108.794L35.5587 105.207C35.9741 104.867 36.038 104.279 35.6865 103.877L32.4597 100.136C31.1818 98.8986 31.661 98.2183 32.1722 97.3215C33.2265 95.4971 35.1434 91.2606 37.5715 83.2515C37.6354 83.0041 37.859 82.8186 38.1466 82.7877C39.4245 82.6021 42.7152 82.5403 44.3765 78.5512C45.9101 74.8714 48.4979 64.4194 49.2327 61.5744C49.3285 61.1415 49.7439 60.8941 50.1912 60.925C51.533 61.0487 54.5042 61.2961 57.9866 61.2961C69.7117 61.2961 79.9991 55.5754 79.9991 44.5977C80.1269 31.1152 65.8459 30.4658 64.1207 30.4658ZM22.7793 54.2457C22.7793 54.2457 21.9167 55.5444 19.9359 55.5444C17.9231 55.5444 15.6548 53.1324 15.6548 51.0297C15.6548 48.9269 16.7091 42.7423 28.4023 37.3926L22.7793 54.2457ZM62.0121 57.9564C56.7726 59.1624 52.8748 58.6986 51.6288 57.9564C50.3828 57.2143 50.9579 55.5444 50.9579 55.5444L57.1559 34.2384C57.5074 33.0633 59.2645 33.4035 59.2645 33.4035C68.6894 33.4035 70.2229 41.5981 70.2229 44.6595C70.7021 47.9064 67.06 56.101 62.0121 57.9564Z" fill="#ED675B"/>
</svg>
